<svg width="180" height="180" viewBox="0 0 180 180" fill="none" xmlns="http://www.w3.org/2000/svg">
<g filter="url(#filter0_d)">
<circle cx="90" cy="84" r="68" fill="#0D0E13"/>
<circle cx="90" cy="84" r="71" stroke="#161616" stroke-width="6"/>
</g>
<mask id="mask0" mask-type="alpha" maskUnits="userSpaceOnUse" x="22" y="16" width="136" height="136">
<circle cx="90" cy="84" r="68" fill="#C4C4C4"/>
</mask>
<g mask="url(#mask0)">
<path d="M120.848 69.2921C120.848 46.242 102.163 27.5562 79.1124 27.5562C56.0623 27.5562 37.3765 46.242 37.3765 69.2921C37.3765 92.3422 56.0623 111.028 79.1124 111.028C102.163 111.028 120.848 92.3422 120.848 69.2921Z" fill="#E71D36"/>
<path d="M37.3765 123.73L57.5186 112.22C63.2139 108.966 68.2125 104.621 72.229 99.4353C76.2454 94.2492 79.201 88.3228 80.927 81.9944H99.0731C100.799 88.3228 103.755 94.2492 107.771 99.4353C111.788 104.621 116.786 108.966 122.482 112.22L142.624 123.73V132.803H37.3765V123.73Z" fill="#8D8D8D"/>
<path d="M136.273 63.8482H99.9804C98.7772 63.8482 97.6233 63.3703 96.7726 62.5195C95.9218 61.6688 95.4438 60.5149 95.4438 59.3117C95.4438 58.1086 95.9218 56.9547 96.7726 56.1039C97.6233 55.2532 98.7772 54.7752 99.9804 54.7752H106.331C106.331 52.3689 107.287 50.0611 108.989 48.3596C110.69 46.6581 112.998 45.7022 115.405 45.7022H119.034V44.7949C119.034 42.6292 119.894 40.5522 121.425 39.0208C122.957 37.4895 125.034 36.6292 127.199 36.6292C129.365 36.6292 131.442 37.4895 132.974 39.0208C134.505 40.5522 135.365 42.6292 135.365 44.7949V51.146H136.273C137.957 51.146 139.572 51.8151 140.763 53.0062C141.954 54.1973 142.624 55.8127 142.624 57.4971C142.624 59.1815 141.954 60.797 140.763 61.988C139.572 63.1791 137.957 63.8482 136.273 63.8482Z" fill="#EAEAEA"/>
<path d="M86.3708 92.882L91.8146 112.843L95.4439 96.5112L100.888 105.584L104.517 96.5112H105.671C102.708 92.0569 100.48 87.1555 99.0731 81.9944H80.927C78.911 89.3872 75.2209 96.217 70.1423 101.955H80.927L86.3708 92.882Z" fill="#EAEAEA"/>
<path d="M122.482 112.22C118.611 110.008 115.055 107.288 111.907 104.133C101.496 117.166 87.7005 127.085 72.03 132.803H142.624V123.73L122.482 112.22Z" fill="#E71D36"/>
</g>
<defs>
<filter id="filter0_d" x="0" y="0" width="180" height="180" filterUnits="userSpaceOnUse" color-interpolation-filters="sRGB">
<feFlood flood-opacity="0" result="BackgroundImageFix"/>
<feColorMatrix in="SourceAlpha" type="matrix" values="0 0 0 0 0 0 0 0 0 0 0 0 0 0 0 0 0 0 127 0"/>
<feOffset dy="6"/>
<feGaussianBlur stdDeviation="8"/>
<feColorMatrix type="matrix" values="0 0 0 0 0 0 0 0 0 0 0 0 0 0 0 0 0 0 0.5 0"/>
<feBlend mode="normal" in2="BackgroundImageFix" result="effect1_dropShadow"/>
<feBlend mode="normal" in="SourceGraphic" in2="effect1_dropShadow" result="shape"/>
</filter>
</defs>
</svg>
