<svg width="276" height="31" viewBox="0 0 276 31" fill="none" xmlns="http://www.w3.org/2000/svg">
<path d="M28.08 13.256C28.08 15.656 27.504 17.84 26.352 19.808C25.224 21.776 23.676 23.324 21.708 24.452H29.772V26H17.676V30.212H12.06V26H0V24.452H8.028C6.06 23.324 4.5 21.776 3.348 19.808C2.22 17.84 1.656 15.656 1.656 13.256C1.656 9.56 2.928 6.476 5.472 4.004C8.016 1.508 11.148 0.259999 14.868 0.259999C18.588 0.259999 21.72 1.508 24.264 4.004C26.808 6.476 28.08 9.56 28.08 13.256ZM12.06 17.288H17.676V20.78C19.068 20.18 20.196 19.208 21.06 17.864C21.924 16.496 22.356 14.972 22.356 13.292C22.356 11.036 21.636 9.116 20.196 7.532C18.756 5.948 16.98 5.156 14.868 5.156C12.78 5.156 11.016 5.948 9.576 7.532C8.136 9.116 7.416 11.036 7.416 13.292C7.416 14.972 7.836 16.496 8.676 17.864C9.54 19.208 10.668 20.18 12.06 20.78V17.288Z" fill="#0057FF"/>
<path d="M56.7773 24.452V26H29.7773V24.452H37.5893C35.6693 23.324 34.1573 21.8 33.0533 19.88C31.9733 17.936 31.4333 15.74 31.4333 13.292C31.4333 9.596 32.7053 6.5 35.2493 4.004C37.8173 1.508 40.9013 0.259999 44.5013 0.259999C48.1253 0.259999 51.2693 1.448 53.9333 3.824L51.0173 8.036C49.8893 7.052 48.8453 6.38 47.8853 6.02C46.9493 5.636 45.9293 5.444 44.8253 5.444C42.6893 5.444 40.8893 6.176 39.4253 7.64C37.9613 9.08 37.2293 10.988 37.2293 13.364C37.2293 15.74 37.9253 17.648 39.3173 19.088C40.7333 20.504 42.4133 21.212 44.3573 21.212C46.3013 21.212 47.9213 20.84 49.2173 20.096V13.184H54.8693V22.112C54.0533 23.024 53.0813 23.804 51.9533 24.452H56.7773ZM59.8733 24.452V0.835998H78.0173V5.84H65.4893V11.024H76.7573V15.812H65.4893V21.032H78.4133V24.452H81.9053V26H56.3813V24.452H59.8733ZM83.428 24.452V0.835998H88.684L101.032 17.036V0.835998H106.648V24.452H110.14V26H101.032L89.044 10.232V26H79.936V24.452H83.428ZM140.25 24.452V26H130.782L128.442 20.564H117.894L115.554 26H106.086V24.452H110.226L120.45 0.835998H125.886L136.074 24.452H140.25ZM123.186 8.324L120.018 15.632H126.318L123.186 8.324ZM139.678 24.452V0.835998H149.218C153.13 0.835998 155.914 1.496 157.57 2.816C159.25 4.136 160.09 6.26 160.09 9.188C160.09 13.22 158.494 15.824 155.302 17L160.558 24.452H163.942V26H154.762L149.182 17.972H145.294V26H136.186V24.452H139.678ZM149.398 13.112C151.318 13.112 152.626 12.8 153.322 12.176C154.018 11.552 154.366 10.568 154.366 9.224C154.366 7.856 154.006 6.92 153.286 6.416C152.566 5.912 151.306 5.66 149.506 5.66H145.294V13.112H149.398ZM193.23 24.452V26H183.762L181.422 20.564H170.874L168.534 26H159.066V24.452H163.206L173.43 0.835998H178.866L189.054 24.452H193.23ZM176.166 8.324L172.998 15.632H179.298L176.166 8.324ZM209.622 24.452V26H187.734V24.452H195.87V5.696H188.742V0.835998H208.614V5.696H201.486V24.452H209.622ZM238.705 24.452V26H208.969V24.452H216.997C215.029 23.324 213.469 21.776 212.317 19.808C211.189 17.84 210.625 15.656 210.625 13.256C210.625 9.56 211.897 6.476 214.441 4.004C216.985 1.508 220.117 0.259999 223.837 0.259999C227.557 0.259999 230.689 1.508 233.233 4.004C235.777 6.476 237.049 9.56 237.049 13.256C237.049 15.656 236.473 17.84 235.321 19.808C234.169 21.776 232.621 23.324 230.677 24.452H238.705ZM231.325 13.292C231.325 11.036 230.605 9.116 229.165 7.532C227.725 5.948 225.949 5.156 223.837 5.156C221.749 5.156 219.985 5.948 218.545 7.532C217.105 9.116 216.385 11.036 216.385 13.292C216.385 15.524 217.105 17.432 218.545 19.016C219.985 20.576 221.749 21.356 223.837 21.356C225.949 21.356 227.725 20.576 229.165 19.016C230.605 17.432 231.325 15.524 231.325 13.292ZM241.807 24.452V0.835998H251.347C255.259 0.835998 258.043 1.496 259.699 2.816C261.379 4.136 262.219 6.26 262.219 9.188C262.219 13.22 260.623 15.824 257.431 17L262.687 24.452H266.071V26H256.891L251.311 17.972H247.423V26H238.315V24.452H241.807ZM251.527 13.112C253.447 13.112 254.755 12.8 255.451 12.176C256.147 11.552 256.495 10.568 256.495 9.224C256.495 7.856 256.135 6.92 255.415 6.416C254.695 5.912 253.435 5.66 251.635 5.66H247.423V13.112H251.527ZM264.867 26V24.452H267.603C267.123 23.9 266.883 23.204 266.883 22.364C266.883 21.5 267.183 20.768 267.783 20.168C268.407 19.544 269.163 19.232 270.051 19.232C270.939 19.232 271.683 19.544 272.283 20.168C272.907 20.768 273.219 21.488 273.219 22.328C273.219 23.168 272.967 23.876 272.463 24.452H275.235V26H264.867Z" fill="#0D0E13"/>
</svg>
